<mxfile host="app.diagrams.net" modified="2023-04-20T08:38:35.975Z" agent="Mozilla/5.0 (Macintosh; Intel Mac OS X 10_15_7) AppleWebKit/537.36 (KHTML, like Gecko) Chrome/112.0.0.0 Safari/537.36" etag="6oo8D-zqBlv6Djf0BzA1" version="21.2.1" type="github">
  <diagram name="Page-1" id="CljbxdQyyG_Zvrd6Px-3">
    <mxGraphModel dx="1754" dy="911" grid="1" gridSize="10" guides="1" tooltips="1" connect="1" arrows="1" fold="1" page="1" pageScale="1" pageWidth="827" pageHeight="1169" math="0" shadow="0">
      <root>
        <mxCell id="0" />
        <mxCell id="1" parent="0" />
        <mxCell id="rSLu-F5e-wSGsm6CNPGK-9" value="" style="rounded=0;whiteSpace=wrap;html=1;" vertex="1" parent="1">
          <mxGeometry x="90" y="40" width="630" height="680" as="geometry" />
        </mxCell>
        <mxCell id="rSLu-F5e-wSGsm6CNPGK-1" value="Sign up" style="ellipse;whiteSpace=wrap;html=1;" vertex="1" parent="1">
          <mxGeometry x="260" y="240" width="140" height="70" as="geometry" />
        </mxCell>
        <mxCell id="rSLu-F5e-wSGsm6CNPGK-2" value="admin&lt;br&gt;" style="shape=umlActor;verticalLabelPosition=bottom;verticalAlign=top;html=1;" vertex="1" parent="1">
          <mxGeometry x="760" y="270" width="30" height="60" as="geometry" />
        </mxCell>
        <mxCell id="rSLu-F5e-wSGsm6CNPGK-3" value="user" style="shape=umlActor;verticalLabelPosition=bottom;verticalAlign=top;html=1;" vertex="1" parent="1">
          <mxGeometry x="30" y="250" width="30" height="60" as="geometry" />
        </mxCell>
        <mxCell id="rSLu-F5e-wSGsm6CNPGK-4" value="superadmin&lt;br&gt;" style="shape=umlActor;verticalLabelPosition=bottom;verticalAlign=top;html=1;align=center;" vertex="1" parent="1">
          <mxGeometry x="760" y="585" width="30" height="60" as="geometry" />
        </mxCell>
        <mxCell id="rSLu-F5e-wSGsm6CNPGK-10" value="sign up" style="ellipse;whiteSpace=wrap;html=1;" vertex="1" parent="1">
          <mxGeometry x="510" y="300" width="140" height="70" as="geometry" />
        </mxCell>
        <mxCell id="rSLu-F5e-wSGsm6CNPGK-11" value="Sign in" style="ellipse;whiteSpace=wrap;html=1;" vertex="1" parent="1">
          <mxGeometry x="220" y="370" width="140" height="70" as="geometry" />
        </mxCell>
        <mxCell id="rSLu-F5e-wSGsm6CNPGK-12" value="sign up" style="ellipse;whiteSpace=wrap;html=1;" vertex="1" parent="1">
          <mxGeometry x="490" y="440" width="140" height="70" as="geometry" />
        </mxCell>
      </root>
    </mxGraphModel>
  </diagram>
</mxfile>
